# xmcd
#
# Track frame offsets:
#	150
#	20297
#	42326
#	60755
#	77841
#	92697
#	115146
#	132570
#	154463
#	177472
#	195627
#	216263
#	254595
#	271977
#	289169
#	304221
#
# Disc length: 4330
#
# Revision: 2
# Processed by: cddbd v1.5.1PL0 Copyright (c) Steve Scherf et al.
# Submitted via: audiograbber 1.81.01
# Normalized: r1:DSETVAR1
#
DISCID=ea10e810
DTITLE=Various Artist - Dreams CD1
DYEAR=1900
DGENRE=
TTITLE0=Moody Blues - Night in white satin
TTITLE1=Eric Carmen - All by myself
TTITLE2=Chris De Burgh - The lady in red
TTITLE3=Joe Cocker - Jennifer Warnes - Up where we belong
TTITLE4=Robin Beck - First time
TTITLE5=Eurithmics - Here comes the rain again
TTITLE6=Air supply - Lost in love
TTITLE7=Rick Astley - Cry for help
TTITLE8=Barcley James Harvest - Hymn
TTITLE9=Cyndi Lauper - Time after time
TTITLE10=Ten Sharp - You
TTITLE11=Cock Robbin - When your heart is weak
TTITLE12=Albert Hammond - It never rains in Southern California
TTITLE13=Dan Hill - Vonda Sheppard - Can't we try
TTITLE14=Will to Power - I'm not in love
TTITLE15=Candy Duffer - Dave Stewart - Lily was here
EXTD=
EXTT0=
EXTT1=
EXTT2=
EXTT3=
EXTT4=
EXTT5=
EXTT6=
EXTT7=
EXTT8=
EXTT9=
EXTT10=
EXTT11=
EXTT12=
EXTT13=
EXTT14=
EXTT15=
PLAYORDER=
